<svg width="211" height="378" viewBox="0 0 211 378" fill="none" xmlns="http://www.w3.org/2000/svg">
<path d="M209 320L105.782 375.253L2.00037 320L2 68.3063L105.782 17L209 68.3063L209 320Z" fill="black" stroke="#FF9500" stroke-width="4"/>
<circle cx="70.7063" cy="53.4455" r="2.01681" fill="white"/>
<circle cx="83.8156" cy="63.5295" r="2.01681" fill="#FF9500"/>
<circle cx="94.9074" cy="80.6723" r="2.01681" fill="white"/>
<circle cx="2.01681" cy="2.01681" r="2.01681" transform="matrix(-1 0 0 1 141.293 51.3629)" fill="white"/>
<circle cx="2.01681" cy="2.01681" r="2.01681" transform="matrix(-1 0 0 1 126.168 61.5127)" fill="#FF9500"/>
<circle cx="2.01681" cy="2.01681" r="2.01681" transform="matrix(-1 0 0 1 107.008 73.6135)" fill="white"/>
<circle cx="62.6379" cy="57.4789" r="2.01681" fill="white"/>
<circle cx="74.7395" cy="68.5714" r="2.01681" fill="#FF9500"/>
<circle cx="2.01681" cy="2.01681" r="2.01681" transform="matrix(-1 0 0 1 151.377 56.4377)" fill="white"/>
<circle cx="2.01681" cy="2.01681" r="2.01681" transform="matrix(-1 0 0 1 136.252 66.5546)" fill="#FF9500"/>
<circle cx="2.01681" cy="2.01681" r="2.01681" transform="matrix(-1 0 0 1 116.084 78.6555)" fill="white"/>
<circle cx="52.5539" cy="62.521" r="2.01681" fill="white"/>
<circle cx="64.6555" cy="73.6134" r="2.01681" fill="#FF9500"/>
<circle cx="2.01681" cy="2.01681" r="2.01681" transform="matrix(-1 0 0 1 161.461 61.4799)" fill="white"/>
<circle cx="2.01681" cy="2.01681" r="2.01681" transform="matrix(-1 0 0 1 146.336 71.5966)" fill="#FF9500"/>
<circle cx="2.01681" cy="2.01681" r="2.01681" transform="matrix(-1 0 0 1 125.16 83.6976)" fill="white"/>
<circle cx="43.4777" cy="67.563" r="2.01681" fill="white"/>
<circle cx="55.5793" cy="77.6471" r="2.01681" fill="#FF9500"/>
<circle cx="153.394" cy="77.6471" r="2.01681" fill="#FF9500"/>
<circle cx="2.01681" cy="2.01681" r="2.01681" transform="matrix(-1 0 0 1 170.537 65.5461)" fill="white"/>
<circle cx="35.4133" cy="71.5966" r="2.01681" fill="white"/>
<circle cx="2.01681" cy="2.01681" r="2.01681" transform="matrix(-1 0 0 1 178.605 69.5798)" fill="white"/>
<circle cx="26.3371" cy="75.6303" r="2.01681" fill="white"/>
<circle cx="2.01681" cy="2.01681" r="2.01681" transform="matrix(-1 0 0 1 187.682 73.6135)" fill="white"/>
<circle cx="18.2688" cy="80.6723" r="2.01681" fill="white"/>
<circle cx="2.01681" cy="2.01681" r="2.01681" transform="matrix(-1 0 0 1 195.746 78.6555)" fill="white"/>
<circle cx="18.2688" cy="90.7563" r="2.01681" fill="white"/>
<circle cx="2.01681" cy="2.01681" r="2.01681" transform="matrix(-1 0 0 1 195.746 88.7395)" fill="white"/>
<circle cx="18.2688" cy="101.849" r="2.01681" fill="white"/>
<circle cx="2.01681" cy="2.01681" r="2.01681" transform="matrix(-1 0 0 1 195.746 99.8318)" fill="white"/>
<circle cx="18.2688" cy="112.941" r="2.01681" fill="white"/>
<circle cx="2.01681" cy="2.01681" r="2.01681" transform="matrix(-1 0 0 1 195.746 110.924)" fill="white"/>
<circle cx="18.2688" cy="124.034" r="2.01681" fill="white"/>
<circle cx="2.01681" cy="2.01681" r="2.01681" transform="matrix(-1 0 0 1 195.746 122.017)" fill="white"/>
<circle cx="18.2688" cy="134.118" r="2.01681" fill="white"/>
<circle cx="2.01681" cy="2.01681" r="2.01681" transform="matrix(-1 0 0 1 195.746 132.101)" fill="white"/>
<circle cx="18.2688" cy="145.21" r="2.01681" fill="white"/>
<circle cx="2.01681" cy="2.01681" r="2.01681" transform="matrix(-1 0 0 1 195.746 143.193)" fill="white"/>
<circle cx="18.2688" cy="156.302" r="2.01681" fill="white"/>
<circle cx="2.01681" cy="2.01681" r="2.01681" transform="matrix(-1 0 0 1 195.746 154.286)" fill="white"/>
<circle cx="18.2688" cy="167.395" r="2.01681" fill="white"/>
<circle cx="2.01681" cy="2.01681" r="2.01681" transform="matrix(-1 0 0 1 195.746 165.378)" fill="white"/>
<circle cx="18.2688" cy="177.479" r="2.01681" fill="white"/>
<circle cx="2.01681" cy="2.01681" r="2.01681" transform="matrix(-1 0 0 1 195.746 175.462)" fill="white"/>
<circle cx="18.2688" cy="188.571" r="2.01681" fill="white"/>
<circle cx="2.01681" cy="2.01681" r="2.01681" transform="matrix(-1 0 0 1 195.746 186.555)" fill="white"/>
<circle cx="24.3195" cy="196.639" r="2.01681" fill="white"/>
<circle cx="2.01681" cy="2.01681" r="2.01681" transform="matrix(-1 0 0 1 189.697 194.622)" fill="white"/>
<circle cx="33.3938" cy="200.672" r="2.01681" fill="white"/>
<circle cx="2.01681" cy="2.01681" r="2.01681" transform="matrix(-1 0 0 1 180.621 198.655)" fill="white"/>
<circle cx="42.4699" cy="205.714" r="2.01681" fill="white"/>
<circle cx="2.01681" cy="2.01681" r="2.01681" transform="matrix(-1 0 0 1 172.555 202.689)" fill="white"/>
<circle cx="51.5461" cy="209.748" r="2.01681" fill="white"/>
<circle cx="2.01681" cy="2.01681" r="2.01681" transform="matrix(-1 0 0 1 162.469 207.731)" fill="white"/>
<circle cx="59.6145" cy="213.782" r="2.01681" fill="white"/>
<circle cx="2.01681" cy="2.01681" r="2.01681" transform="matrix(-1 0 0 1 153.396 211.765)" fill="white"/>
<circle cx="68.6906" cy="218.823" r="2.01681" fill="white"/>
<circle cx="2.01681" cy="2.01681" r="2.01681" transform="matrix(-1 0 0 1 145.328 216.807)" fill="white"/>
<circle cx="77.7629" cy="223.866" r="2.01681" fill="white"/>
<circle cx="2.01681" cy="2.01681" r="2.01681" transform="matrix(-1 0 0 1 136.252 221.849)" fill="white"/>
<circle cx="85.8313" cy="227.899" r="2.01681" fill="white"/>
<circle cx="2.01681" cy="2.01681" r="2.01681" transform="matrix(-1 0 0 1 128.184 225.882)" fill="white"/>
<circle cx="95.9152" cy="232.941" r="2.01681" fill="white"/>
<circle cx="2.01681" cy="2.01681" r="2.01681" transform="matrix(-1 0 0 1 118.1 229.916)" fill="white"/>
<circle cx="2.01681" cy="2.01681" r="2.01681" transform="matrix(-1 0 0 1 108.016 235.966)" fill="white"/>
<circle cx="33.8927" cy="182.444" r="2.17195" fill="#FF9500"/>
<circle cx="42.5802" cy="186.788" r="2.17195" fill="#FF9500"/>
<circle cx="2.17195" cy="2.17195" r="2.17195" transform="matrix(-1 0 0 1 170.725 184.616)" fill="#FF9500"/>
<circle cx="2.17195" cy="2.17195" r="2.17195" transform="matrix(-1 0 0 1 179.414 180.272)" fill="#FF9500"/>
<circle cx="2.17195" cy="2.17195" r="2.17195" transform="matrix(-1 0 0 1 179.414 169.412)" fill="#FF9500"/>
<circle cx="52.3555" cy="191.131" r="2.17195" fill="#FF9500"/>
<circle cx="2.17195" cy="2.17195" r="2.17195" transform="matrix(-1 0 0 1 160.953 188.959)" fill="#FF9500"/>
<circle cx="61.0411" cy="195.475" r="2.17195" fill="#FF9500"/>
<circle cx="2.17195" cy="2.17195" r="2.17195" transform="matrix(-1 0 0 1 152.264 193.303)" fill="#FF9500"/>
<circle cx="69.7305" cy="200.905" r="2.17195" fill="#FF9500"/>
<circle cx="2.17195" cy="2.17195" r="2.17195" transform="matrix(-1 0 0 1 143.576 198.733)" fill="#FF9500"/>
<circle cx="78.418" cy="205.249" r="2.17195" fill="#FF9500"/>
<circle cx="2.17195" cy="2.17195" r="2.17195" transform="matrix(-1 0 0 1 134.889 203.077)" fill="#FF9500"/>
<circle cx="87.1055" cy="209.593" r="2.17195" fill="#FF9500"/>
<circle cx="2.17195" cy="2.17195" r="2.17195" transform="matrix(-1 0 0 1 126.199 207.421)" fill="#FF9500"/>
<circle cx="96.879" cy="213.937" r="2.17195" fill="#FF9500"/>
<circle cx="2.17195" cy="2.17195" r="2.17195" transform="matrix(-1 0 0 1 116.428 211.765)" fill="#FF9500"/>
<circle cx="2.17195" cy="2.17195" r="2.17195" transform="matrix(-1 0 0 1 107.738 216.109)" fill="#FF9500"/>
<circle cx="33.8927" cy="165.068" r="2.17195" fill="#FF9500"/>
<circle cx="2.17195" cy="2.17195" r="2.17195" transform="matrix(-1 0 0 1 179.414 152.036)" fill="#FF9500"/>
<circle cx="2.17195" cy="2.17195" r="2.17195" transform="matrix(-1 0 0 1 160.953 171.584)" fill="white"/>
<circle cx="55.6134" cy="173.756" r="2.17195" fill="white"/>
<circle cx="2.17195" cy="2.17195" r="2.17195" transform="matrix(-1 0 0 1 152.264 175.928)" fill="white"/>
<circle cx="64.3008" cy="178.1" r="2.17195" fill="white"/>
<path fill-rule="evenodd" clip-rule="evenodd" d="M49.3626 96.6474C48.1752 96.0706 46.7673 95.7823 45.1389 95.7823C44.3586 95.7823 43.6292 95.8671 42.9507 96.0367C42.2722 96.2063 41.5937 96.4438 40.9152 96.7492L44.0702 83.62L36.1826 84.8413L27.3789 121.837C28.3627 122.312 29.3975 122.685 30.4831 122.957C31.6026 123.228 32.6543 123.432 33.6382 123.567C34.622 123.703 35.4871 123.771 36.2335 123.771C37.0137 123.805 37.5566 123.822 37.8619 123.822C40.2367 123.822 42.4418 123.381 44.4773 122.499C46.5129 121.583 48.277 120.361 49.7697 118.835C51.2624 117.274 52.4329 115.459 53.281 113.39C54.1631 111.286 54.6041 109.064 54.6041 106.723C54.6041 105.197 54.4175 103.772 54.0443 102.449C53.6711 101.126 53.0944 99.9721 52.3141 98.9882C51.5338 98.0044 50.55 97.2241 49.3626 96.6474ZM41.882 116.697C40.8304 117.274 39.7108 117.562 38.5234 117.562H37.6074H36.9968L36.4879 117.461C36.3522 117.427 36.1826 117.393 35.979 117.359L39.3376 103.416C39.9483 102.873 40.6268 102.516 41.3732 102.347C42.1535 102.177 42.7811 102.092 43.256 102.092C44.7148 102.092 45.7156 102.55 46.2584 103.466C46.8012 104.382 47.0726 105.655 47.0726 107.283C47.0726 108.606 46.8521 109.878 46.4111 111.1C45.9701 112.321 45.3594 113.424 44.5791 114.407C43.8328 115.357 42.9337 116.121 41.882 116.697ZM64.1844 123.11H56.6529L63.0139 96.3424H70.5963L64.1844 123.11ZM67.8483 93.0856C66.7966 93.0856 65.8467 92.7802 64.9986 92.1696C64.1504 91.525 63.7264 90.5581 63.7264 89.2689C63.7264 88.5565 63.8621 87.895 64.1335 87.2843C64.4388 86.6397 64.829 86.0969 65.3039 85.6559C65.7789 85.1809 66.3217 84.8077 66.9323 84.5363C67.5769 84.2649 68.2554 84.1292 68.9679 84.1292C70.0196 84.1292 70.9695 84.4515 71.8176 85.0961C72.6657 85.7068 73.0898 86.6567 73.0898 87.9459C73.0898 88.6583 72.9371 89.3368 72.6318 89.9814C72.3604 90.592 71.9872 91.1348 71.5123 91.6098C71.0373 92.0508 70.4775 92.4071 69.833 92.6785C69.2223 92.9499 68.5608 93.0856 67.8483 93.0856ZM151.397 123.11H143.865L150.226 96.3424H157.809L151.397 123.11ZM155.061 93.0856C154.009 93.0856 153.059 92.7802 152.211 92.1696C151.363 91.525 150.939 90.5581 150.939 89.2689C150.939 88.5565 151.074 87.895 151.346 87.2843C151.651 86.6397 152.041 86.0969 152.516 85.6559C152.991 85.1809 153.534 84.8077 154.145 84.5363C154.789 84.2649 155.468 84.1292 156.18 84.1292C157.232 84.1292 158.182 84.4515 159.03 85.0961C159.878 85.7068 160.302 86.6567 160.302 87.9459C160.302 88.6583 160.149 89.3368 159.844 89.9814C159.573 90.592 159.199 91.1348 158.725 91.6098C158.25 92.0508 157.69 92.4071 157.045 92.6785C156.435 92.9499 155.773 93.0856 155.061 93.0856ZM164.434 97.5635C165.011 97.3939 165.638 97.2073 166.317 97.0037C167.029 96.7662 167.809 96.5627 168.658 96.3931C169.54 96.1895 170.507 96.0368 171.558 95.9351C172.644 95.7994 173.865 95.7315 175.222 95.7315C179.225 95.7315 181.973 96.885 183.466 99.1919C184.959 101.499 185.213 104.654 184.229 108.657L180.769 123.109H173.187L176.545 108.962C176.749 108.08 176.901 107.232 177.003 106.418C177.139 105.57 177.139 104.841 177.003 104.23C176.868 103.585 176.545 103.076 176.036 102.703C175.561 102.296 174.815 102.093 173.797 102.093C172.813 102.093 171.813 102.194 170.795 102.398L165.859 123.109H158.276L164.434 97.5635ZM122.072 123.007C123.395 123.55 124.956 123.821 126.754 123.821C129.23 123.821 131.401 123.313 133.267 122.295C135.167 121.243 136.745 119.903 138 118.275C139.255 116.646 140.205 114.814 140.85 112.779C141.494 110.743 141.817 108.708 141.817 106.672C141.817 105.044 141.596 103.568 141.155 102.245C140.714 100.888 140.052 99.7174 139.17 98.7335C138.322 97.7497 137.22 96.9864 135.863 96.4435C134.54 95.9007 132.996 95.6293 131.232 95.6293C128.823 95.6293 126.686 96.1552 124.82 97.2069C122.954 98.2246 121.376 99.5477 120.087 101.176C118.798 102.805 117.814 104.637 117.136 106.672C116.491 108.708 116.169 110.743 116.169 112.779C116.169 114.407 116.389 115.9 116.83 117.257C117.271 118.58 117.916 119.733 118.764 120.717C119.646 121.701 120.749 122.464 122.072 123.007ZM127.568 103.008C128.416 102.364 129.4 102.041 130.519 102.041C131.944 102.041 132.928 102.516 133.471 103.466C134.014 104.382 134.285 105.705 134.285 107.435C134.285 108.487 134.132 109.607 133.827 110.794C133.556 111.947 133.132 113.016 132.555 114C131.978 114.984 131.266 115.798 130.418 116.443C129.569 117.087 128.586 117.409 127.466 117.409C126.041 117.409 125.057 116.951 124.515 116.036C123.972 115.086 123.7 113.746 123.7 112.015C123.7 110.964 123.836 109.861 124.107 108.708C124.413 107.52 124.854 106.435 125.431 105.451C126.007 104.467 126.72 103.653 127.568 103.008ZM93.0115 112.422C93.0115 110.116 93.3847 107.944 94.1311 105.909C94.8774 103.873 95.9461 102.092 97.337 100.565C98.728 99.0388 100.407 97.8345 102.375 96.9524C104.377 96.0704 106.599 95.6293 109.041 95.6293C110.568 95.6293 111.925 95.782 113.112 96.0873C114.334 96.3587 115.436 96.7319 116.42 97.2069L113.825 103.11C113.146 102.838 112.434 102.601 111.688 102.397C110.975 102.16 110.093 102.041 109.041 102.041C106.497 102.041 104.495 102.906 103.037 104.637C101.578 106.333 100.848 108.657 100.848 111.608C100.848 113.338 101.221 114.746 101.968 115.832C102.714 116.884 104.088 117.409 106.09 117.409C107.074 117.409 108.024 117.308 108.94 117.104C109.856 116.901 110.67 116.646 111.382 116.341L111.942 122.397C110.992 122.77 109.94 123.092 108.787 123.363C107.667 123.669 106.293 123.821 104.665 123.821C102.562 123.821 100.78 123.516 99.3217 122.905C97.8629 122.295 96.6585 121.481 95.7086 120.463C94.7587 119.411 94.0632 118.19 93.6222 116.799C93.2151 115.408 93.0115 113.949 93.0115 112.422ZM86.227 88.4545L78.3393 89.6758L73.3523 110.743C72.9452 112.474 72.7077 114.119 72.6398 115.68C72.572 117.24 72.8095 118.631 73.3523 119.852C73.8951 121.04 74.8111 121.99 76.1002 122.702C77.3894 123.381 79.2044 123.72 81.5453 123.72C83.1737 123.72 84.5816 123.584 85.769 123.313C86.9564 123.041 88.059 122.719 89.0767 122.346L88.517 116.545C87.7367 116.816 86.9564 117.037 86.1761 117.206C85.4297 117.342 84.6494 117.41 83.8352 117.41C82.8853 117.41 82.139 117.274 81.5962 117.003C81.0533 116.731 80.6632 116.358 80.4257 115.883C80.2222 115.374 80.1374 114.781 80.1713 114.102C80.2391 113.424 80.3748 112.694 80.5784 111.914L82.8175 102.55H91.214L92.7407 96.3421H84.2932L86.227 88.4545Z" fill="white"/>
<path fill-rule="evenodd" clip-rule="evenodd" d="M85.7751 172.336C85.1057 172.08 84.3773 171.952 83.5898 171.952C82.3298 171.952 81.1092 172.149 79.9279 172.543C78.7467 172.937 77.5654 173.616 76.3842 174.58L77.8903 177.799C78.7959 177.11 79.6326 176.598 80.4004 176.264C81.1682 175.909 81.9557 175.732 82.7629 175.732C83.3338 175.732 83.7965 175.909 84.1508 176.264C84.5249 176.598 84.7119 177.022 84.7119 177.534C84.7119 177.947 84.6233 178.341 84.4462 178.715C84.269 179.089 83.9835 179.492 83.5898 179.926C83.2157 180.339 82.7137 180.802 82.0837 181.314C81.4734 181.806 80.7252 182.396 79.8393 183.085C78.8943 183.814 78.0182 184.503 77.2111 185.153C76.4039 185.783 75.6754 186.472 75.0258 187.22C74.3958 187.948 73.8642 188.765 73.4311 189.671C72.998 190.576 72.6928 191.649 72.5156 192.89H86.1294L87.0154 189.228H78.2151C78.6482 188.677 79.1109 188.184 79.6031 187.751C80.0953 187.298 80.5973 186.875 81.1092 186.481C81.6407 186.088 82.1723 185.704 82.7038 185.33C83.2551 184.956 83.7965 184.562 84.328 184.149C85.2337 183.44 85.9916 182.8 86.6019 182.229C87.2319 181.658 87.7339 181.097 88.108 180.546C88.4821 179.994 88.7478 179.424 88.9053 178.833C89.0628 178.242 89.1416 177.573 89.1416 176.825C89.1416 176.155 89.0038 175.525 88.7282 174.935C88.4525 174.344 88.0588 173.832 87.5469 173.399C87.0547 172.946 86.4641 172.592 85.7751 172.336ZM96.3296 189.523C96.9596 189.523 97.5404 189.336 98.0719 188.962C98.6035 188.588 99.0661 188.096 99.4599 187.486C99.8733 186.875 100.228 186.186 100.523 185.418C100.838 184.631 101.094 183.834 101.291 183.026C101.488 182.219 101.635 181.432 101.734 180.664C101.832 179.896 101.881 179.217 101.881 178.626C101.881 177.622 101.724 176.884 101.409 176.411C101.114 175.939 100.651 175.703 100.021 175.703C99.3713 175.703 98.7807 175.89 98.2491 176.264C97.7176 176.638 97.2451 177.13 96.8316 177.74C96.4182 178.351 96.054 179.049 95.739 179.837C95.4437 180.624 95.1976 181.422 95.0007 182.229C94.8038 183.036 94.6562 183.824 94.5577 184.591C94.4593 185.359 94.4101 186.039 94.4101 186.629C94.4101 187.653 94.5676 188.391 94.8826 188.844C95.1976 189.297 95.6799 189.523 96.3296 189.523ZM95.6504 193.303C94.6857 193.303 93.8687 193.136 93.1993 192.801C92.5299 192.447 91.9787 191.984 91.5456 191.413C91.1321 190.842 90.827 190.202 90.6301 189.494C90.4529 188.765 90.3643 188.017 90.3643 187.249C90.3643 185.005 90.6104 182.948 91.1026 181.077C91.6145 179.207 92.3134 177.593 93.1993 176.234C94.1049 174.876 95.1877 173.823 96.4477 173.074C97.7077 172.326 99.1055 171.952 100.641 171.952C101.606 171.952 102.423 172.129 103.092 172.484C103.762 172.818 104.303 173.271 104.716 173.842C105.15 174.413 105.455 175.063 105.632 175.791C105.829 176.5 105.927 177.238 105.927 178.006C105.927 180.25 105.671 182.308 105.159 184.178C104.667 186.048 103.968 187.663 103.063 189.021C102.177 190.38 101.104 191.433 99.8438 192.181C98.5838 192.929 97.186 193.303 95.6504 193.303ZM119.342 172.336C118.673 172.08 117.944 171.952 117.157 171.952C115.897 171.952 114.676 172.149 113.495 172.543C112.314 172.937 111.133 173.616 109.951 174.58L111.457 177.799C112.363 177.11 113.2 176.598 113.967 176.264C114.735 175.909 115.523 175.732 116.33 175.732C116.901 175.732 117.364 175.909 117.718 176.264C118.092 176.598 118.279 177.022 118.279 177.534C118.279 177.947 118.19 178.341 118.013 178.715C117.836 179.089 117.551 179.492 117.157 179.926C116.783 180.339 116.281 180.802 115.651 181.314C115.04 181.806 114.292 182.396 113.406 183.085C112.461 183.814 111.585 184.503 110.778 185.153C109.971 185.783 109.243 186.472 108.593 187.22C107.963 187.948 107.431 188.765 106.998 189.671C106.565 190.576 106.26 191.649 106.083 192.89H119.696L120.582 189.228H111.782C112.215 188.677 112.678 188.184 113.17 187.751C113.662 187.298 114.164 186.875 114.676 186.481C115.208 186.088 115.739 185.704 116.271 185.33C116.822 184.956 117.364 184.562 117.895 184.149C118.801 183.44 119.559 182.8 120.169 182.229C120.799 181.658 121.301 181.097 121.675 180.546C122.049 179.994 122.315 179.424 122.472 178.833C122.63 178.242 122.709 177.573 122.709 176.825C122.709 176.155 122.571 175.525 122.295 174.935C122.02 174.344 121.626 173.832 121.114 173.399C120.622 172.946 120.031 172.592 119.342 172.336ZM132.91 179.217C133.481 178.646 134.022 178.114 134.534 177.622L132.821 184.769H128.037C128.51 184.158 129.012 183.538 129.543 182.908C130.094 182.259 130.655 181.629 131.226 181.018C131.797 180.388 132.358 179.788 132.91 179.217ZM136.955 184.769L139.938 172.425H135.745C134.642 173.311 133.52 174.305 132.378 175.407C131.236 176.51 130.134 177.632 129.071 178.774C128.008 179.916 127.023 181.038 126.118 182.14C125.212 183.223 124.444 184.198 123.814 185.064L123.076 188.312H131.847L130.754 192.89H134.947L136.069 188.312H138.255L139.111 184.769H136.955Z" fill="white"/>
<path fill-rule="evenodd" clip-rule="evenodd" d="M50.826 162.165C51.6924 160.536 52.3856 158.595 52.9055 156.343L58.2604 133.831C56.7007 133.103 55.1064 132.566 53.4774 132.22C51.8484 131.873 50.2021 131.7 48.5384 131.7C46.2509 131.7 44.0501 132.046 41.9358 132.739C39.8563 133.433 38.002 134.455 36.373 135.807C34.7787 137.159 33.4963 138.857 32.5258 140.902C31.5554 142.912 31.0701 145.234 31.0701 147.868C31.0701 149.324 31.2434 150.676 31.59 151.923C31.9713 153.137 32.5258 154.194 33.2537 155.095C34.0162 155.996 34.9866 156.706 36.1651 157.226C37.3435 157.712 38.7472 157.954 40.3762 157.954C41.2427 157.954 42.0571 157.85 42.8197 157.642C43.6168 157.434 44.362 157.157 45.0552 156.81L44.8472 157.798C44.5006 159.358 43.7555 160.623 42.6117 161.593C41.5026 162.599 39.8389 163.101 37.6207 163.101C35.9224 163.101 34.4841 162.928 33.3057 162.581C32.1619 162.235 31.0528 161.819 29.9784 161.333L27.3789 167.468C28.592 168.057 29.9437 168.543 31.4341 168.924C32.9244 169.34 34.7614 169.548 36.9449 169.548C39.3017 169.548 41.364 169.27 43.1316 168.716C44.8992 168.196 46.4069 167.382 47.6546 166.272C48.937 165.198 49.9941 163.829 50.826 162.165ZM47.2907 138.198C48.1572 138.198 48.885 138.268 49.4743 138.406L46.6149 150.312C45.9563 150.936 45.2111 151.334 44.3793 151.508C43.5822 151.681 42.941 151.767 42.4557 151.767C41.7279 151.767 41.1213 151.646 40.6361 151.404C40.1509 151.161 39.7696 150.849 39.4924 150.468C39.2151 150.052 39.0245 149.584 38.9205 149.064C38.8165 148.51 38.7645 147.92 38.7645 147.296C38.7645 146.014 38.9551 144.818 39.3364 143.709C39.7523 142.565 40.3242 141.595 41.052 140.798C41.8145 140.001 42.7157 139.377 43.7555 138.926C44.7952 138.441 45.9737 138.198 47.2907 138.198ZM134.892 149.064C134.892 146.846 135.273 144.697 136.036 142.617C136.833 140.538 137.942 138.701 139.363 137.107C140.784 135.478 142.5 134.178 144.51 133.207C146.555 132.202 148.808 131.7 151.269 131.7C152.482 131.7 153.608 131.873 154.648 132.22C155.688 132.566 156.589 133.069 157.352 133.727C158.149 134.386 158.755 135.2 159.171 136.171C159.622 137.107 159.847 138.181 159.847 139.394C159.847 141.335 159.414 142.981 158.547 144.333C157.681 145.685 156.468 146.794 154.908 147.66C153.383 148.492 151.563 149.099 149.449 149.48C147.335 149.861 145.03 150.052 142.535 150.052C142.777 151.508 143.297 152.547 144.094 153.171C144.926 153.76 146.226 154.055 147.993 154.055C149.103 154.055 150.229 153.968 151.373 153.795C152.517 153.587 153.591 153.292 154.596 152.911L155.168 158.994C154.198 159.375 152.95 159.722 151.425 160.034C149.934 160.346 148.305 160.502 146.538 160.502C144.389 160.502 142.569 160.207 141.079 159.618C139.623 158.994 138.427 158.162 137.492 157.122C136.591 156.083 135.932 154.869 135.516 153.483C135.1 152.097 134.892 150.624 134.892 149.064ZM150.021 137.834C148.253 137.834 146.694 138.476 145.342 139.758C144.025 141.006 143.159 142.669 142.743 144.749C144.891 144.68 146.624 144.506 147.941 144.229C149.259 143.917 150.281 143.553 151.009 143.137C151.737 142.721 152.222 142.271 152.465 141.786C152.707 141.3 152.828 140.815 152.828 140.33C152.828 138.666 151.893 137.834 150.021 137.834ZM169.79 154.263C171.557 154.263 172.77 154.02 173.429 153.535C174.088 153.015 174.417 152.461 174.417 151.871C174.417 151.49 174.347 151.161 174.209 150.884C174.105 150.606 173.914 150.346 173.637 150.104C173.36 149.861 172.978 149.619 172.493 149.376C172.008 149.099 171.384 148.787 170.622 148.44C169.755 148.059 168.941 147.66 168.178 147.244C167.416 146.794 166.74 146.274 166.151 145.685C165.596 145.061 165.145 144.368 164.799 143.605C164.487 142.808 164.331 141.872 164.331 140.798C164.331 137.99 165.353 135.772 167.398 134.143C169.478 132.514 172.493 131.7 176.444 131.7C178.316 131.7 179.98 131.908 181.435 132.324C182.891 132.739 184.069 133.19 184.971 133.675L182.319 139.446C181.591 139.065 180.655 138.701 179.512 138.354C178.368 138.008 177.242 137.834 176.132 137.834C175.647 137.834 175.162 137.869 174.677 137.938C174.226 137.973 173.793 138.077 173.377 138.25C172.996 138.424 172.684 138.666 172.441 138.978C172.199 139.29 172.077 139.706 172.077 140.226C172.077 140.919 172.337 141.439 172.857 141.786C173.412 142.132 174.174 142.548 175.145 143.033C176.496 143.692 177.623 144.298 178.524 144.853C179.425 145.407 180.136 145.997 180.655 146.621C181.21 147.244 181.609 147.955 181.851 148.752C182.094 149.549 182.215 150.485 182.215 151.56C182.215 152.669 181.973 153.76 181.487 154.835C181.037 155.909 180.309 156.862 179.304 157.694C178.299 158.526 177.016 159.202 175.457 159.722C173.897 160.242 172.025 160.502 169.842 160.502C168.49 160.502 167.26 160.415 166.151 160.242C165.076 160.068 164.123 159.86 163.291 159.618C162.459 159.341 161.749 159.063 161.16 158.786C160.605 158.509 160.172 158.283 159.86 158.11L162.511 152.183C163.1 152.53 164.019 152.963 165.267 153.483C166.514 154.003 168.022 154.263 169.79 154.263ZM97.5267 133.103C96.8682 133.311 96.2443 133.502 95.6551 133.675L89.3644 159.774H97.1108L102.154 138.614C102.674 138.51 103.124 138.441 103.505 138.406C103.887 138.337 104.355 138.302 104.909 138.302C106.226 138.302 107.11 138.666 107.561 139.394C108.011 140.087 108.236 140.919 108.236 141.889C108.236 142.479 108.167 143.085 108.028 143.709C107.925 144.298 107.821 144.835 107.717 145.321L104.285 159.774H112.032L115.567 145.009C115.74 144.316 115.862 143.622 115.931 142.929C116.035 142.236 116.087 141.578 116.087 140.954V140.278C116.087 140.035 116.052 139.775 115.983 139.498C116.503 139.221 117.092 138.961 117.75 138.718C118.409 138.441 119.102 138.302 119.83 138.302C121.147 138.302 122.031 138.666 122.481 139.394C122.932 140.087 123.157 140.919 123.157 141.889C123.157 142.479 123.088 143.085 122.949 143.709C122.845 144.298 122.741 144.835 122.637 145.321L119.206 159.774H126.953L130.488 145.009C130.661 144.316 130.782 143.622 130.852 142.929C130.956 142.236 131.008 141.578 131.008 140.954C131.008 139.602 130.834 138.372 130.488 137.262C130.141 136.119 129.587 135.148 128.824 134.351C128.062 133.519 127.091 132.895 125.913 132.479C124.769 132.029 123.383 131.804 121.754 131.804C120.055 131.804 118.565 132.046 117.283 132.531C116.035 132.982 114.77 133.571 113.487 134.299C112.586 133.467 111.581 132.843 110.472 132.427C109.398 132.012 108.028 131.804 106.365 131.804C104.978 131.804 103.748 131.873 102.674 132.012C101.634 132.115 100.681 132.271 99.8142 132.479C98.9824 132.653 98.2199 132.861 97.5267 133.103ZM84.4319 147.972C83.9467 149.948 83.8081 151.941 84.016 153.951C84.224 155.926 84.6226 157.694 85.2118 159.254L78.2972 160.242C78.0893 159.826 77.8986 159.427 77.7253 159.046C77.552 158.665 77.3787 158.231 77.2054 157.746C76.235 158.543 75.1605 159.202 73.9821 159.722C72.8037 160.242 71.4866 160.502 70.031 160.502C68.298 160.502 66.8076 160.207 65.5599 159.618C64.3468 158.994 63.3417 158.179 62.5445 157.174C61.782 156.134 61.2275 154.939 60.8809 153.587C60.5343 152.201 60.361 150.728 60.361 149.168C60.361 146.776 60.7769 144.524 61.6087 142.409C62.4752 140.295 63.6536 138.458 65.144 136.898C66.669 135.304 68.454 134.056 70.4989 133.155C72.5438 132.254 74.762 131.804 77.1535 131.804C77.4654 131.804 78.0026 131.821 78.7651 131.856C79.5623 131.89 80.4634 131.977 81.4686 132.115C82.4737 132.219 83.5308 132.41 84.6399 132.687C85.749 132.965 86.8061 133.346 87.8112 133.831L84.4319 147.972ZM79.0251 138.406C78.5745 138.337 78.1586 138.285 77.7773 138.25C77.4307 138.216 76.9975 138.198 76.4776 138.198C75.2992 138.198 74.1901 138.493 73.1503 139.082C72.1452 139.671 71.2614 140.451 70.4989 141.422C69.7364 142.357 69.1298 143.449 68.6792 144.697C68.2633 145.945 68.0554 147.244 68.0554 148.596C68.0554 150.26 68.3326 151.577 68.8872 152.547C69.4417 153.518 70.4642 154.003 71.9546 154.003C72.7517 154.003 73.4622 153.847 74.0861 153.535C74.7446 153.223 75.4378 152.703 76.1657 151.975C76.235 151.109 76.339 150.208 76.4776 149.272C76.6509 148.301 76.8242 147.418 76.9975 146.62L79.0251 138.406Z" fill="#FF9500"/>
<circle cx="103.983" cy="29.2436" r="24.2017" fill="white"/>
<path d="M134.323 38.8228C130.214 55.5695 113.524 65.7612 97.0439 61.5851C80.5701 57.4099 70.5415 40.4474 74.6518 23.7016C78.7582 6.95304 95.4483 -3.23973 111.924 0.935458C128.403 5.11064 138.43 22.0751 134.323 38.8228ZM118.049 26.8072C118.661 22.6476 115.545 20.4115 111.284 18.9199L112.666 13.2852L109.291 12.4304L107.945 17.9166C107.058 17.6919 106.147 17.4799 105.241 17.2699L106.597 11.7475L103.224 10.8928L101.841 16.5255C101.106 16.3555 100.385 16.1875 99.6854 16.0107L99.6893 15.9931L95.0349 14.8121L94.1371 18.4754C94.1371 18.4754 96.6412 19.0586 96.5883 19.0947C97.9552 19.4415 98.2022 20.3607 98.1609 21.0895L96.5864 27.5086C96.6806 27.533 96.8026 27.5682 96.9372 27.6228C96.8248 27.5945 96.7046 27.5633 96.5806 27.533L94.3736 36.5252C94.2063 36.9472 93.7824 37.5802 92.8269 37.3399C92.8606 37.3897 90.3738 36.7176 90.3738 36.7176L88.6984 40.6437L93.0904 41.7564C93.9074 41.9644 94.7081 42.1823 95.4964 42.3875L94.0996 48.0865L97.4707 48.9413L98.8539 43.3028C99.7748 43.5568 100.669 43.7912 101.544 44.012L100.165 49.6241L103.54 50.4789L104.937 44.7906C110.692 45.8974 115.019 45.4509 116.841 40.1611C118.309 35.902 116.768 33.445 113.74 31.843C115.945 31.3262 117.605 29.8521 118.049 26.8072ZM110.338 37.7961C109.295 42.0553 102.238 39.7528 99.9507 39.1754L101.804 31.6252C104.092 32.2054 111.428 33.3542 110.338 37.7961ZM111.382 26.7456C110.43 30.6199 104.557 28.6515 102.652 28.1689L104.332 21.321C106.237 21.8035 112.373 22.7043 111.382 26.7456Z" fill="#FF9500"/>
<path d="M195 284.222L174.346 295.349V270.127L195 259V284.222Z" fill="white"/>
<path d="M172.379 296.408L151.725 307.535V282.313L172.379 271.186V296.408Z" fill="white"/>
<path d="M149.756 308.596L130.086 319.193V293.97L149.756 283.373V308.596Z" fill="white"/>
<path d="M128.122 320.251L106.484 331.908V306.686L128.122 295.029V320.251Z" fill="white"/>
<path d="M16.1684 284.222L36.8223 295.349V270.127L16.1684 259V284.222Z" fill="white"/>
<path d="M38.7895 296.409L59.4434 307.536V282.313L38.7895 271.187V296.409Z" fill="white"/>
<path d="M61.4116 308.596L81.082 319.193V293.971L61.4116 283.374V308.596Z" fill="#FF9500"/>
<path d="M83.0462 320.252L104.684 331.908V306.686L83.0462 295.029V320.252Z" fill="#FF9500"/>
<path d="M195 257.222L174.346 268.349V243.127L195 232V257.222Z" fill="white"/>
<path d="M172.379 269.408L151.725 280.535V255.313L172.379 244.186V269.408Z" fill="#FF9500"/>
<path d="M149.756 281.596L130.086 292.193V266.97L149.756 256.373V281.596Z" fill="#FF9500"/>
<path d="M128.122 293.251L106.484 304.908V279.686L128.122 268.029V293.251Z" fill="white"/>
<path d="M16.1684 257.222L36.8223 268.349V243.127L16.1684 232V257.222Z" fill="#FF9500"/>
<path d="M38.7895 269.409L59.4434 280.536V255.313L38.7895 244.187V269.409Z" fill="#FF9500"/>
<path d="M61.4116 281.596L81.082 292.193V266.971L61.4116 256.374V281.596Z" fill="white"/>
<path d="M83.0462 293.252L104.684 304.908V279.686L83.0462 268.029V293.252Z" fill="white"/>
<path d="M195 311.222L174.346 322.349V297.127L195 286V311.222Z" fill="white"/>
<path d="M172.379 323.408L151.725 334.535V309.313L172.379 298.186V323.408Z" fill="#FF9500"/>
<path d="M149.756 335.596L130.086 346.193V320.97L149.756 310.373V335.596Z" fill="#FF9500"/>
<path d="M128.122 347.251L106.484 358.908V333.686L128.122 322.029V347.251Z" fill="#FF9500"/>
<path d="M16.1684 311.222L36.8223 322.349V297.127L16.1684 286V311.222Z" fill="white"/>
<path d="M38.7895 323.409L59.4434 334.536V309.313L38.7895 298.187V323.409Z" fill="white"/>
<path d="M61.4116 335.596L81.082 346.193V320.971L61.4116 310.374V335.596Z" fill="white"/>
<path d="M83.0462 347.252L104.684 358.908V333.686L83.0462 322.029V347.252Z" fill="white"/>
<path d="M195 230.222L174.346 241.349V216.127L195 205V230.222Z" fill="white"/>
<path d="M172.379 242.408L151.725 253.535V228.313L172.379 217.186V242.408Z" fill="#FF9500"/>
<path d="M149.756 254.596L130.086 265.193V239.97L149.756 229.373V254.596Z" fill="#FF9500"/>
<path d="M128.122 266.251L106.484 277.908V252.686L128.122 241.029V266.251Z" fill="white"/>
<path d="M16.1684 230.222L36.8223 241.349V216.127L16.1684 205V230.222Z" fill="white"/>
<path d="M38.7895 242.409L59.4434 253.536V228.313L38.7895 217.187V242.409Z" fill="white"/>
<path d="M61.4116 254.596L81.082 265.193V239.971L61.4116 229.374V254.596Z" fill="white"/>
<path d="M83.0462 266.252L104.684 277.908V252.686L83.0462 241.029V266.252Z" fill="white"/>
</svg>
